<svg xmlns="http://www.w3.org/2000/svg" xmlns:xlink="http://www.w3.org/1999/xlink" width="224" height="238" viewBox="0 0 224 238">
  <defs>
    <clipPath id="clip-path">
      <rect id="Rectangle_5513" data-name="Rectangle 5513" width="85.876" height="16" fill="none"/>
    </clipPath>
    <clipPath id="clip-path-2">
      <rect id="Rectangle_5514" data-name="Rectangle 5514" width="66.224" height="12" fill="none"/>
    </clipPath>
    <clipPath id="clip-path-3">
      <rect id="Rectangle_5515" data-name="Rectangle 5515" width="224" height="224" fill="none" stroke="#0071a9" stroke-width="4"/>
    </clipPath>
  </defs>
  <g id="qr-frame" transform="translate(-754 -252)">
    <g id="frame">
      <g id="Group_10517" data-name="Group 10517" transform="translate(823.062 252)">
        <g id="Group_10516" data-name="Group 10516" transform="translate(0 0)" clip-path="url(#clip-path)">
          <path id="Path_19601" data-name="Path 19601" d="M97.307,8.412,91.893.651l-.551-.5h5.336l3.616,5.867.291-.237,2.186-3.249a1.711,1.711,0,0,0-.3-2.381h5.042l-5.828,8.265,0,6,1.027,1.221H96.445l.883-1.2c0-2-.073-4.02-.021-6.013M82.608.146a2.249,2.249,0,0,1,.609,1.33,1.9,1.9,0,0,1-.11.921L79.08,14.072A4.3,4.3,0,0,1,77.936,15.6H82.33a1.81,1.81,0,0,1-.61-1.044,1.714,1.714,0,0,1,.015-.876l.893-2.773h5.113l.8,2.137a2.463,2.463,0,0,1,.152.672,2.01,2.01,0,0,1-.819,1.919h6.889a6.354,6.354,0,0,1-1.646-2L88.084.146Zm4.383,8.747H83.333L85.107,3.84ZM68.679.159,72.14.146h4.2a4.216,4.216,0,0,1,4.2,4.2v.518a4.212,4.212,0,0,1-4.2,4.145l-1.917.058A3.927,3.927,0,0,0,76.42,4.958C76.266,3.664,75.6,2.42,74.488,2.4l-.7-.015V13.9a.82.82,0,0,0,.157.514,8.009,8.009,0,0,0,.7.94l.2.244H68.883c.09-.11.178-.221.261-.335a3.827,3.827,0,0,0,.461-.8,1.25,1.25,0,0,0,.115-.525V1.566C69.7.921,69.056.555,68.679.159" transform="translate(-36.357 -0.077)" fill="#004f9f" fill-rule="evenodd"/>
          <path id="Path_19602" data-name="Path 19602" d="M0,0H4.813L8.852,11.582l3.426-9.594a1.114,1.114,0,0,0-.134-.814c-.19-.389-.392-.767-.582-1.157h3.595c-.213.783-.528,1.642-.8,2.432L9.715,15.937a7.571,7.571,0,0,1-3.772-1.789,6.583,6.583,0,0,1-1.52-2.721L.542,1.148A9.921,9.921,0,0,0,0,0M19.215,5.427V13.7c0,.336.078.4.284.665l.948,1.236h-4.53l.765-1.168a1.227,1.227,0,0,0,.282-.8V2.071L15.691,0h4.695l7.6,9.79v-7.8a1.246,1.246,0,0,0-.271-.814C27.46.785,27.194.407,26.939.017h4.526l-.944,1.236c-.207.269-.284.329-.284.665V16a6.4,6.4,0,0,1-4.73-2.46Z" transform="translate(0 0)" fill="#e30613" fill-rule="evenodd"/>
          <path id="Path_19603" data-name="Path 19603" d="M150.458,3.891a3.576,3.576,0,0,1,.138-.98A3.982,3.982,0,0,1,151,1.995,3.589,3.589,0,0,1,152.444.644a4.607,4.607,0,0,1,2.194-.5,3.437,3.437,0,0,1,.953.122,3.976,3.976,0,0,1,.884.381A3.4,3.4,0,0,1,157.779,2a4.611,4.611,0,0,1,.381.953,4.358,4.358,0,0,1,.127,1.081,4.265,4.265,0,0,1-.349,1.637,3.836,3.836,0,0,1-1,1.415l.54.519a7.263,7.263,0,0,0,.689.577,4.343,4.343,0,0,0,.81.466,2.729,2.729,0,0,0,.927.244,3.42,3.42,0,0,1-.9.54,2.632,2.632,0,0,1-.99.185,2.225,2.225,0,0,1-.884-.185,4.489,4.489,0,0,1-.848-.456c-.281-.191-.535-.387-.763-.572l-.6-.509c-.043,0-.1,0-.164.005s-.149.016-.244.032l-.361.032a3.456,3.456,0,0,1-1.891-.545,3.669,3.669,0,0,1-1.324-1.473,4.385,4.385,0,0,1-.355-.975,4.846,4.846,0,0,1-.121-1.081m2.145.021a3.288,3.288,0,0,0,.085.742,6.78,6.78,0,0,0,.2.683,2.643,2.643,0,0,0,.651,1.07,1.42,1.42,0,0,0,1.044.418,1.286,1.286,0,0,0,1.186-.636,3.117,3.117,0,0,0,.387-1.626c0-.169-.022-.445-.054-.816a5.5,5.5,0,0,0-.153-.757,3.758,3.758,0,0,0-.222-.625,1.8,1.8,0,0,0-.646-.81,1.662,1.662,0,0,0-.96-.275,1.2,1.2,0,0,0-.477.1,1.306,1.306,0,0,0-.4.265,1.858,1.858,0,0,0-.488.821,3.771,3.771,0,0,0-.153,1.091v.36Zm8.5.08a1.537,1.537,0,0,0,.63-.244,1.334,1.334,0,0,0,.434-.5,1.66,1.66,0,0,0,.122-.307,1.362,1.362,0,0,0,.037-.328,1.314,1.314,0,0,0-.28-.864A1.04,1.04,0,0,0,161.2,1.4h-.089Zm0,.6v2.1a1.122,1.122,0,0,0,.487,1.065v.048h-3.052V7.758a1.1,1.1,0,0,0,.466-1.049V1.56a2.655,2.655,0,0,0-.084-.736.946.946,0,0,0-.382-.477V.326h3.7a2.593,2.593,0,0,1,1.113.228,1.775,1.775,0,0,1,.778.683,1.586,1.586,0,0,1,.217.5,2.1,2.1,0,0,1,.08.588,1.9,1.9,0,0,1-.275.916,2.283,2.283,0,0,1-1.054.879L164.571,6.6a4.941,4.941,0,0,0,.953,1.144l-1.288.1-.323.011h-.3a1.341,1.341,0,0,1-.689-.149,1.341,1.341,0,0,1-.466-.567Z" transform="translate(-79.648 -0.077)" fill="#e30613" fill-rule="evenodd"/>
        </g>
      </g>
      <g id="Group_10519" data-name="Group 10519" transform="translate(832.888 478)">
        <g id="Group_10518" data-name="Group 10518" transform="translate(0 0)" clip-path="url(#clip-path-2)">
          <path id="Path_19604" data-name="Path 19604" d="M2.7,8.076A2.112,2.112,0,0,0,3.912,7.8a1.343,1.343,0,0,0,.521-.86A.824.824,0,0,0,4.35,6.32,2.465,2.465,0,0,0,3.644,5.7l-1.448-1A3.04,3.04,0,0,1,1.448,4a1.617,1.617,0,0,1-.3-.755A2.579,2.579,0,0,1,1.2,2.4,2.824,2.824,0,0,1,2.3.641,4.1,4.1,0,0,1,4.772,0a4.607,4.607,0,0,1,1.2.154,3.221,3.221,0,0,1,.862.339.737.737,0,0,1,.178.151.218.218,0,0,1,.031.188l-.185.856Q6.792,2,6.5,1.879a5.359,5.359,0,0,0-.927-.252A5.7,5.7,0,0,0,4.463,1.5q-1.325,0-1.509.881a.594.594,0,0,0,.1.518,3.457,3.457,0,0,0,.7.579l1.325.9a3.5,3.5,0,0,1,.869.791,1.809,1.809,0,0,1,.348.813,2.8,2.8,0,0,1-.052.951,3.273,3.273,0,0,1-.591,1.291A3.213,3.213,0,0,1,4.4,9.2a4.632,4.632,0,0,1-1.965.376,4.912,4.912,0,0,1-1.383-.178,3.387,3.387,0,0,1-.829-.327A.808.808,0,0,1,.025,8.9.229.229,0,0,1,.01,8.728l.185-.856q.061-.289.357-.191a6.616,6.616,0,0,0,2.15.395" transform="translate(0 0)" fill="#009bd9"/>
          <path id="Path_19605" data-name="Path 19605" d="M15.255,9.852a6.094,6.094,0,0,0,1.688-.29q.283-.074.221.2L17,10.573a.39.39,0,0,1-.1.188.775.775,0,0,1-.234.138,3.752,3.752,0,0,1-1.7.364,2.926,2.926,0,0,1-1.423-.317,1.7,1.7,0,0,1-.8-1,3.407,3.407,0,0,1,0-1.74l.252-1.176a4.319,4.319,0,0,1,.73-1.719A3.154,3.154,0,0,1,14.947,4.29a3.743,3.743,0,0,1,1.565-.327,2.865,2.865,0,0,1,1.546.364.468.468,0,0,1,.175.139.245.245,0,0,1,.022.188l-.173.807q-.062.277-.308.2c-.259-.09-.495-.161-.709-.212a3.444,3.444,0,0,0-.794-.077q-1.276,0-1.626,1.652L14.392,8.2a1.692,1.692,0,0,0,.08,1.272.893.893,0,0,0,.782.378" transform="translate(-5.383 -1.69)" fill="#009bd9"/>
          <path id="Path_19606" data-name="Path 19606" d="M26,5.35a7.25,7.25,0,0,0-2.082.326q-.283.074-.221-.2l.16-.77a.362.362,0,0,1,.1-.191.733.733,0,0,1,.237-.135,6.151,6.151,0,0,1,1.016-.29,6.32,6.32,0,0,1,1.275-.123,2.934,2.934,0,0,1,1.333.265,1.41,1.41,0,0,1,.715.813,2.461,2.461,0,0,1,.028,1.331l-.918,4.3a.463.463,0,0,1-.068.191.3.3,0,0,1-.166.086,10.7,10.7,0,0,1-1.133.234,9.119,9.119,0,0,1-1.306.08,5.071,5.071,0,0,1-1.645-.216,1.34,1.34,0,0,1-.825-.681,1.952,1.952,0,0,1-.056-1.223l.013-.062a3.116,3.116,0,0,1,.363-.955,2.108,2.108,0,0,1,.65-.665,2.993,2.993,0,0,1,1-.4A6.606,6.606,0,0,1,25.9,6.926h.887l.117-.554q.123-.592-.093-.807A1.145,1.145,0,0,0,26,5.35M26.151,9.9l.395-1.867h-.887a2.829,2.829,0,0,0-.869.1.781.781,0,0,0-.428.314,1.864,1.864,0,0,0-.212.595l-.018.074a1,1,0,0,0,0,.545.465.465,0,0,0,.326.265,2.886,2.886,0,0,0,.782.077,3.43,3.43,0,0,0,.912-.1" transform="translate(-9.547 -1.69)" fill="#009bd9"/>
          <path id="Path_19607" data-name="Path 19607" d="M39.775,10.9a.32.32,0,0,1-.114.182.3.3,0,0,1-.194.083H38.3a.173.173,0,0,1-.157-.083.243.243,0,0,1-.034-.182L39,6.736a2.2,2.2,0,0,0,.052-.795.582.582,0,0,0-.3-.431,1.551,1.551,0,0,0-.727-.135,6.647,6.647,0,0,0-1.269.135L35.61,10.9a.306.306,0,0,1-.108.188.3.3,0,0,1-.2.077H34.145a.179.179,0,0,1-.163-.083.243.243,0,0,1-.034-.182L35.29,4.593q.037-.185.308-.253a12.324,12.324,0,0,1,1.411-.274,10.191,10.191,0,0,1,1.368-.1,2.576,2.576,0,0,1,2.039.656,2.438,2.438,0,0,1,.253,2.1Z" transform="translate(-14.478 -1.691)" fill="#009bd9"/>
          <path id="Path_19608" data-name="Path 19608" d="M56.809,9.905q-.037.191-.283.228a6.493,6.493,0,0,1-1.01.087,3.362,3.362,0,0,1-1.146-.151.8.8,0,0,1-.505-.583,2.968,2.968,0,0,1,.068-1.269l.838-3.961-1-.178c-.164-.029-.232-.113-.2-.253l.123-.567a.3.3,0,0,1,.1-.179.3.3,0,0,1,.2-.073h1.047l.222-1.035a.326.326,0,0,1,.308-.253l1.213-.2h.056q.2,0,.154.191l-.277,1.3h1.275a.189.189,0,0,1,.2.252L58.028,4a.324.324,0,0,1-.114.178.3.3,0,0,1-.194.074H56.445l-.838,3.961a1.283,1.283,0,0,0-.046.585q.052.117.385.117h.807q.265,0,.228.191Z" transform="translate(-22.844 -0.646)" fill="#009bd9"/>
          <path id="Path_19609" data-name="Path 19609" d="M67.518,8.122a4.4,4.4,0,0,1-.693,1.62,3.518,3.518,0,0,1-1.263,1.121,3.651,3.651,0,0,1-1.728.4,2.751,2.751,0,0,1-1.556-.4,1.877,1.877,0,0,1-.791-1.121,3.473,3.473,0,0,1,0-1.62L61.7,7.105a4.434,4.434,0,0,1,.69-1.62,3.468,3.468,0,0,1,1.269-1.121,3.684,3.684,0,0,1,1.725-.4,2.733,2.733,0,0,1,1.558.4,1.9,1.9,0,0,1,.786,1.121,3.448,3.448,0,0,1,0,1.62Zm-1.663,0,.216-1.017a1.817,1.817,0,0,0-.083-1.247.942.942,0,0,0-.908-.459,1.475,1.475,0,0,0-1.1.459,2.476,2.476,0,0,0-.613,1.247l-.216,1.017a1.808,1.808,0,0,0,.086,1.247.937.937,0,0,0,.9.459,1.483,1.483,0,0,0,1.1-.459,2.46,2.46,0,0,0,.616-1.247" transform="translate(-26.187 -1.691)" fill="#009bd9"/>
          <path id="Path_19610" data-name="Path 19610" d="M86.673,3.024a3.267,3.267,0,0,1-1.485,2.258,5.275,5.275,0,0,1-2.778.7c-.065,0-.21-.005-.434-.015l-.438-.022L81.3,5.932l-.7,3.29a.319.319,0,0,1-.111.182.288.288,0,0,1-.185.071H79.046a.2.2,0,0,1-.157-.074.191.191,0,0,1-.04-.178L80.691.542A.4.4,0,0,1,80.848.28a.778.778,0,0,1,.33-.114A16.505,16.505,0,0,1,83.685,0,3.929,3.929,0,0,1,86.17.68,2.079,2.079,0,0,1,86.7,2.914Zm-1.743,0,.025-.111a1.112,1.112,0,0,0-.218-1.127,2.08,2.08,0,0,0-1.359-.339,10.719,10.719,0,0,0-1.134.056l-.641,3q.6.037,1.115.037a3.307,3.307,0,0,0,1.124-.163,1.579,1.579,0,0,0,.712-.5,2.024,2.024,0,0,0,.376-.856" transform="translate(-33.63 0)" fill="#009bd9"/>
          <path id="Path_19611" data-name="Path 19611" d="M94.594,5.35a7.25,7.25,0,0,0-2.082.326q-.283.074-.221-.2l.16-.77a.362.362,0,0,1,.1-.191.734.734,0,0,1,.237-.135,6.151,6.151,0,0,1,1.016-.29,6.32,6.32,0,0,1,1.275-.123,2.934,2.934,0,0,1,1.333.265,1.41,1.41,0,0,1,.715.813,2.461,2.461,0,0,1,.028,1.331l-.918,4.3a.464.464,0,0,1-.068.191.3.3,0,0,1-.166.086,10.7,10.7,0,0,1-1.133.234,9.119,9.119,0,0,1-1.306.08,5.071,5.071,0,0,1-1.645-.216,1.34,1.34,0,0,1-.825-.681,1.952,1.952,0,0,1-.056-1.223l.013-.062a3.116,3.116,0,0,1,.363-.955,2.108,2.108,0,0,1,.65-.665,2.993,2.993,0,0,1,1-.4,6.606,6.606,0,0,1,1.423-.132h.887l.117-.554q.123-.592-.093-.807a1.145,1.145,0,0,0-.807-.215M94.741,9.9l.395-1.867h-.887a2.829,2.829,0,0,0-.869.1.781.781,0,0,0-.428.314,1.864,1.864,0,0,0-.212.595l-.018.074a1,1,0,0,0,0,.545.465.465,0,0,0,.326.265,2.886,2.886,0,0,0,.782.077,3.43,3.43,0,0,0,.912-.1" transform="translate(-38.804 -1.69)" fill="#009bd9"/>
          <path id="Path_19612" data-name="Path 19612" d="M109.36,4.33a.21.21,0,0,1-.031.074l-3.678,7.368a5.558,5.558,0,0,1-.724,1.158,2.186,2.186,0,0,1-.893.622,3.888,3.888,0,0,1-1.371.2,5.55,5.55,0,0,1-.7-.049,3.741,3.741,0,0,1-.6-.117q-.252-.068-.221-.216l.172-.807a.267.267,0,0,1,.108-.161.318.318,0,0,1,.194-.068h.025q.166.006.7.043t.708.037a1.522,1.522,0,0,0,.481-.068.875.875,0,0,0,.366-.243,2.1,2.1,0,0,0,.323-.5l.178-.376h-.185a1.129,1.129,0,0,1-.4-.068.629.629,0,0,1-.314-.3,1.678,1.678,0,0,1-.169-.681L102.91,4.4a.207.207,0,0,1,.006-.086.252.252,0,0,1,.284-.2h1.275a.166.166,0,0,1,.139.068.254.254,0,0,1,.052.161l.185,5.131q0,.277.111.277h.117l2.513-5.421a.313.313,0,0,1,.3-.216h1.287a.18.18,0,0,1,.142.065.168.168,0,0,1,.037.151" transform="translate(-43.141 -1.755)" fill="#009bd9"/>
        </g>
      </g>
      <g id="Group_10521" data-name="Group 10521" transform="translate(754 260)">
        <g id="Group_10520" data-name="Group 10520" clip-path="url(#clip-path-3)">
          <path id="Path_19613" data-name="Path 19613" d="M35.109.5H.5V35.109" transform="translate(-0.019 -0.019)" fill="none" stroke="#0071a9" stroke-miterlimit="10" stroke-width="4"/>
          <path id="Path_19614" data-name="Path 19614" d="M231.109,35.109V.5H196.5" transform="translate(-7.59 -0.019)" fill="none" stroke="#0071a9" stroke-miterlimit="10" stroke-width="4"/>
          <path id="Path_19615" data-name="Path 19615" d="M.5,196.5v34.609H35.109" transform="translate(-0.019 -7.59)" fill="none" stroke="#0071a9" stroke-miterlimit="10" stroke-width="4"/>
          <path id="Path_19616" data-name="Path 19616" d="M196.5,231.109h34.609V196.5" transform="translate(-7.59 -7.59)" fill="none" stroke="#0071a9" stroke-miterlimit="10" stroke-width="4"/>
        </g>
      </g>
    </g>
  </g>
</svg>
